<svg width="81" height="86" viewBox="0 0 81 86" fill="none" xmlns="http://www.w3.org/2000/svg">
<path d="M40.5 17.9167L40.136 17.5738L40.5 17.1874L40.864 17.5738L40.5 17.9167ZM41 50.1667C41 50.4428 40.7761 50.6667 40.5 50.6667C40.2239 50.6667 40 50.4428 40 50.1667L41 50.1667ZM23.261 35.4905L40.136 17.5738L40.864 18.2595L23.989 36.1761L23.261 35.4905ZM40.864 17.5738L57.739 35.4905L57.011 36.1761L40.136 18.2595L40.864 17.5738ZM41 17.9167L41 50.1667L40 50.1667L40 17.9167L41 17.9167Z" fill="white"/>
<path d="M16.875 57.3333L16.875 60.9166C16.875 64.8747 19.8971 68.0833 23.625 68.0833L57.375 68.0833C61.1029 68.0833 64.125 64.8747 64.125 60.9166V57.3333" stroke="white"/>
</svg>
